PathFileType	3	(X/Y/Z)	E:\ViconData\BIOM9541 2025\Week 7\Wed1100\Hanif 90 squat 7-5 Squat 01.trc
DataRate	CameraRate	NumFrames	NumMarkers	Units	OrigDataRate	OrigDataStartFrame	OrigNumFrames
200.0	200.0	20	19	mm	200.0	831	1661	
Frame#	Time	C7			CLAV			RBAK			LASI			RASI			LPSI			RPSI			LTHI			LKNE			LTIB			LANK			LHEE			LTOE			RTHI			RKNE			RTIB			RANK			RHEE			RTOE			
		X1	Y1	Z1	X2	Y2	Z2	X3	Y3	Z3	X4	Y4	Z4	X5	Y5	Z5	X6	Y6	Z6	X7	Y7	Z7	X8	Y8	Z8	X9	Y9	Z9	X10	Y10	Z10	X11	Y11	Z11	X12	Y12	Z12	X13	Y13	Z13	X14	Y14	Z14	X15	Y15	Z15	X16	Y16	Z16	X17	Y17	Z17	X18	Y18	Z18	X19	Y19	Z19	
831	4.15	316.59363	919.2868	-1229.1235	177.43924	831.71826	-1214.8138	333.9715	839.17572	-1380.339	282.47644	490.0004	-1093.4086	269.25214	504.25583	-1356.9806	449.09396	552.16223	-1185.5065	446.74152	548.65454	-1259.0101	182.95061	423.12506	-932.81354	83.799232	346.02377	-879.35773	202.70651	181.61781	-914.82458	301.49661	67.483696	-977.59375	322.45856	55.154499	-1036.1625	161.68878	39.410709	-948.98584	305.13107	469.51193	-1437.613	73.621437	319.88406	-1542.6127	113.3802	247.59273	-1533.5433	287.38272	70.19075	-1434.3203	315.92566	55.38353	-1363.1985	161.5074	39.38065	-1463.1932
832	4.155	316.7681	919.11774	-1229.2218	177.62538	831.58417	-1214.8479	334.06589	838.96283	-1380.4084	282.60086	489.83084	-1093.3867	269.35977	504.07385	-1356.9811	449.17236	551.99377	-1185.3202	446.74936	548.32941	-1258.9827	183.08177	423.06934	-932.8009	83.889824	346.04803	-879.30011	202.75528	181.59221	-914.79309	301.52908	67.647713	-977.50983	322.40466	55.196236	-1036.1371	161.66168	39.425629	-948.94763	305.17044	469.43451	-1437.6063	73.593094	319.90771	-1542.5847	113.34227	247.62758	-1533.5195	287.35175	70.261543	-1434.3253	315.20825	56.314728	-1360.6564	161.48514	39.432037	-1463.1803
833	4.16	316.93356	918.89783	-1229.3384	177.78375	831.40985	-1214.9172	334.14905	838.75317	-1380.4707	282.77921	489.65079	-1093.3928	269.4176	503.94022	-1356.9893	449.25006	551.83551	-1185.1522	446.77206	547.94629	-1259.0032	183.19519	422.93567	-932.83606	83.991989	346.02844	-879.24231	202.79134	181.51442	-914.79205	301.4256	67.584312	-977.47406	322.45938	55.34449	-1036.2166	161.66983	39.449932	-948.86786	305.20038	469.38574	-1437.6097	73.54425	319.96405	-1542.5542	113.307	247.68585	-1533.4988	287.30756	70.337135	-1434.322	315.7977	55.497948	-1362.9117	161.4763	39.478912	-1463.2003
834	4.165	317.1152	918.70453	-1229.4741	177.94727	831.24927	-1215.0239	334.26297	838.56268	-1380.5563	282.90741	489.56482	-1093.3464	269.50305	503.78149	-1357.031	449.32358	551.63483	-1185.1021	446.8157	547.56293	-1259.0364	183.3353	422.91632	-932.82245	84.083199	346.04932	-879.21283	202.82368	181.52724	-914.75555	301.09372	66.635254	-977.73163	322.42273	55.275833	-1036.1915	161.66592	39.458736	-948.86188	305.27762	469.25031	-1437.6174	73.52401	319.9744	-1542.5403	113.28496	247.67517	-1533.4817	287.31369	70.330055	-1434.328	315.15198	56.329025	-1360.5463	161.46559	39.444366	-1463.1661
835	4.17	317.27106	918.50549	-1229.6045	177.78085	831.7005	-1215.0621	334.4335	838.37933	-1380.6948	283.04642	489.48694	-1093.3658	269.59283	503.58688	-1357.0177	449.48248	551.39319	-1185.385	447.03055	547.50751	-1259.1458	183.42426	422.9725	-932.83685	84.173744	346.12823	-879.21625	202.84482	181.60231	-914.73682	301.34192	67.237122	-977.56976	322.42633	55.192593	-1036.1891	161.6488	39.415127	-948.87964	305.37161	469.05127	-1437.6232	73.533318	319.88889	-1542.4811	113.26426	247.60088	-1533.4463	287.30884	70.245209	-1434.3094	315.83249	55.398384	-1363.0295	161.46017	39.394817	-1463.1625
836	4.175	317.42419	918.37921	-1229.6993	178.24184	830.99414	-1215.1827	334.54797	838.19232	-1380.7939	283.19168	489.42407	-1093.3722	269.6601	503.44049	-1357.0919	449.67474	551.16888	-1185.7507	447.22037	547.55035	-1259.2148	183.58427	423.00488	-932.87311	84.282379	346.241	-879.20862	202.89586	181.69659	-914.74121	301.40103	67.206345	-977.5965	322.40836	55.105968	-1036.1724	161.64587	39.381802	-948.91339	305.44476	468.84607	-1437.6188	73.524384	319.83792	-1542.4575	113.25895	247.56128	-1533.4167	287.31433	70.189407	-1434.3097	315.23022	56.217525	-1360.7635	161.46173	39.360405	-1463.1808
837	4.18	317.61761	918.23853	-1229.8457	178.38567	830.86945	-1215.2096	334.65466	838.04547	-1380.8778	283.34952	489.32941	-1093.3949	269.76498	503.30997	-1357.1034	449.8667	550.98505	-1185.8806	447.41885	547.47931	-1259.3369	183.71542	423.04941	-932.88416	84.413383	346.30939	-879.22852	202.94907	181.69524	-914.78516	301.42233	67.206543	-977.64166	322.39395	55.047443	-1036.1484	161.66406	39.37273	-948.89935	305.51608	468.71387	-1437.6034	73.53437	319.84799	-1542.4287	113.2374	247.56436	-1533.3779	287.2887	70.195374	-1434.3131	316.27692	55.663929	-1363.5068	161.46202	39.350071	-1463.1494
838	4.185	317.78244	918.12164	-1229.8984	178.0047	831.30426	-1214.9535	334.77267	837.90601	-1380.9631	283.48584	489.21368	-1093.3478	269.83752	503.23792	-1357.079	449.96881	550.8634	-1185.6985	447.44034	547.13324	-1259.3562	183.88405	422.97812	-932.91241	84.524353	346.31	-879.24316	202.96939	181.70628	-914.75928	301.43558	67.237793	-977.65967	322.4823	55.18417	-1036.2185	161.66055	39.435268	-948.85229	305.6041	468.65894	-1437.6031	73.535789	319.91586	-1542.4064	113.24339	247.61714	-1533.3524	287.29831	70.249817	-1434.292	316.01526	55.952034	-1362.4088	161.43666	39.417778	-1463.1627
839	4.19	317.94769	917.9613	-1229.9586	178.72676	830.62872	-1215.2847	334.90948	837.73065	-1381.0247	283.64624	489.00012	-1093.3676	269.93472	503.14014	-1357.0635	450.11227	550.7359	-1185.6406	447.52438	546.81354	-1259.3684	184.00279	422.92535	-932.86646	84.611732	346.32965	-879.21185	203.03549	181.64699	-914.75177	301.45676	67.278992	-977.59631	322.44739	55.187016	-1036.1597	161.6852	39.444111	-948.77582	305.68686	468.57129	-1437.5924	73.554893	319.96707	-1542.3813	113.24986	247.68312	-1533.3314	287.29272	70.309799	-1434.2837	316.2804	55.662624	-1363.3562	161.44724	39.479675	-1463.1682
840	4.195	318.11002	917.80676	-1230.0142	178.38892	830.96045	-1214.9954	335.03165	837.57306	-1381.0798	283.78738	488.86017	-1093.3188	270.0575	502.97147	-1357.0757	450.24661	550.55957	-1185.7235	447.5853	546.61926	-1259.3317	184.50949	423.04974	-933.29041	84.717377	346.38574	-879.19	203.05292	181.64578	-914.74786	301.47235	67.299057	-977.55542	322.50259	55.161739	-1036.198	161.73419	39.388233	-948.8053	305.78256	468.45886	-1437.5896	73.583572	319.92239	-1542.361	113.26991	247.65338	-1533.3101	287.31787	70.252029	-1434.2749	315.88605	55.329945	-1363.0525	161.46928	39.427448	-1463.141
841	4.2	318.28006	917.64557	-1230.1028	178.56564	830.78851	-1215.022	335.21158	837.38074	-1381.131	283.93726	488.81628	-1093.2979	270.17596	502.77011	-1357.0989	450.4165	550.33801	-1185.9415	447.77518	546.50854	-1259.3978	184.68468	423.10455	-933.28784	84.814087	346.46216	-879.17969	203.06046	181.70447	-914.71484	301.27316	66.599777	-977.84906	322.50092	55.055599	-1036.1749	161.70862	39.366493	-948.81244	305.86676	468.32242	-1437.5946	73.598381	319.87827	-1542.3746	113.31239	247.56189	-1533.3041	287.31442	70.182137	-1434.281	315.88986	55.271687	-1363.1393	161.509	39.349545	-1463.1523
842	4.205	318.4585	917.50732	-1230.1631	178.91235	830.71826	-1215.2468	335.33279	837.22186	-1381.1671	284.04724	488.74387	-1093.2875	270.32852	502.57111	-1357.0311	450.55222	550.19641	-1186.0684	447.94797	546.35431	-1259.4857	184.41234	423.02032	-932.81415	84.917175	346.56863	-879.15479	203.07715	181.77756	-914.66766	301.52698	67.186195	-977.66968	322.50583	55.049347	-1036.1976	161.69672	39.375618	-948.88098	305.94556	468.19299	-1437.6099	73.609261	319.85239	-1542.3619	113.30923	247.53708	-1533.2982	287.32077	70.127495	-1434.2737	315.89642	55.284752	-1363.1401	161.49313	39.323132	-1463.1479
843	4.21	318.63391	917.42773	-1230.2457	178.93228	830.61926	-1215.1189	335.41214	837.07819	-1381.1925	284.20715	488.65912	-1093.3228	270.42615	502.4668	-1357.0256	450.67404	550.08215	-1186.0774	448.0498	546.28961	-1259.5022	184.58249	423.05252	-932.82239	85.005516	346.6514	-879.15167	203.10132	181.81717	-914.63361	301.4736	67.223198	-977.66162	322.38965	54.980835	-1036.1033	161.6778	39.401955	-948.85864	306.00696	468.10117	-1437.62	73.615532	319.88208	-1542.3501	113.28619	247.58598	-1533.2928	287.28	70.162758	-1434.2831	316.23566	55.604023	-1363.3378	161.47298	39.383625	-1463.1812
844	4.215	318.80212	917.33563	-1230.2825	179.138	830.49884	-1215.1614	335.51654	836.96204	-1381.2145	284.33618	488.54346	-1093.3511	270.52493	502.40552	-1357.0375	450.7887	549.96307	-1185.9054	448.15637	546.15118	-1259.5311	184.8399	423.13162	-932.91205	85.144279	346.72003	-879.14288	203.1613	181.80162	-914.68292	301.44366	67.221794	-977.5827	322.37842	55.05563	-1036.124	161.68642	39.421177	-948.80536	306.10208	468.05096	-1437.6494	73.614998	319.9436	-1542.337	113.26422	247.65849	-1533.2859	287.26227	70.219841	-1434.3038	315.90564	55.321362	-1363.1328	161.45638	39.438084	-1463.178
845	4.22	319.02649	917.23193	-1230.3506	179.23724	830.36548	-1215.0856	335.66626	836.84558	-1381.2382	284.51431	488.45364	-1093.3901	270.64099	502.34055	-1357.0353	450.94049	549.84741	-1185.9186	448.30621	545.9837	-1259.6217	184.95146	423.14819	-932.85553	85.271431	346.79184	-879.11047	203.21796	181.82877	-914.67596	301.42188	67.171928	-977.56372	322.39438	55.097767	-1036.1407	161.6963	39.454201	-948.77924	306.20914	467.98044	-1437.6742	73.657097	319.96817	-1542.3354	113.26325	247.68869	-1533.28	287.2858	70.230812	-1434.2957	315.88599	55.33786	-1363.0668	161.48386	39.456261	-1463.1744
846	4.225	319.21591	917.09296	-1230.3906	180.04636	829.87726	-1215.502	335.88181	836.74255	-1381.3092	284.68085	488.37543	-1093.4432	270.75452	502.27182	-1357.0922	451.09647	549.68848	-1186.0502	448.43973	545.76263	-1259.6953	185.07936	423.16754	-932.82465	85.39502	346.89789	-879.06073	203.26941	181.8932	-914.63086	301.51294	67.17823	-977.633	322.45505	55.050976	-1036.1807	161.70546	39.427628	-948.76849	306.33081	467.89236	-1437.707	73.685265	319.95914	-1542.3297	113.30338	247.6198	-1533.2723	287.30652	70.175591	-1434.2847	315.89032	55.318462	-1363.0741	161.49054	39.421612	-1463.1783
847	4.23	319.41953	916.97449	-1230.4242	180.23274	829.74152	-1215.5099	336.1153	836.64648	-1381.3875	284.83359	488.32864	-1093.4408	270.86993	502.17981	-1357.1129	451.28918	549.51569	-1186.2668	448.62231	545.7251	-1259.7072	185.2834	423.20523	-932.82312	85.510651	346.95645	-878.98584	203.36229	181.92673	-914.60315	301.57697	67.163589	-977.6781	322.44849	54.950989	-1036.1472	161.72957	39.40881	-948.77692	306.44138	467.76212	-1437.7251	73.727478	319.91669	-1542.332	113.33866	247.5685	-1533.2653	287.32852	70.113472	-1434.3015	315.89511	55.262634	-1363.0598	161.49614	39.346725	-1463.1526
848	4.235	319.61554	916.85785	-1230.4374	180.42592	829.68085	-1215.4995	336.38638	836.5343	-1381.4911	285.00955	488.23093	-1093.475	271.00369	502.1026	-1357.1401	451.4552	549.34534	-1186.3047	448.80954	545.5661	-1259.7678	185.44594	423.18091	-932.8089	85.689323	347.02487	-878.98633	203.4229	181.92683	-914.6051	301.64487	67.227577	-977.68243	322.46564	54.94709	-1036.1396	161.73239	39.397846	-948.76123	306.5213	467.70593	-1437.762	73.770638	319.92776	-1542.3456	113.36083	247.57205	-1533.2716	287.32373	70.079643	-1434.2858	315.89124	55.228184	-1363.0753	161.50079	39.358414	-1463.1542
849	4.24	319.82385	916.78699	-1230.4719	180.56871	829.63965	-1215.4552	336.5647	836.42133	-1381.5558	285.18042	488.20496	-1093.4844	271.10907	502.1019	-1357.1476	451.62213	549.27734	-1186.2535	448.95236	545.45209	-1259.7855	185.62973	423.13654	-932.84637	85.861649	347.06656	-878.96417	203.51118	181.90448	-914.58972	301.62668	67.282112	-977.62549	322.52628	55.019672	-1036.1949	161.74532	39.411304	-948.7132	306.60895	467.72195	-1437.7927	73.837837	319.99643	-1542.3606	113.39133	247.61929	-1533.2734	287.31372	70.109512	-1434.2737	315.87231	55.187763	-1363.0282	161.49307	39.412598	-1463.1691
850	4.245	320.08795	916.80457	-1230.5597	180.74319	829.63208	-1215.4314	336.76736	836.34882	-1381.6179	285.32062	488.16302	-1093.4938	271.25232	502.12772	-1357.2051	451.76935	549.23535	-1186.075	448.99313	545.2467	-1259.7668	185.82741	423.11832	-932.87036	86.010017	347.12079	-878.90057	203.55963	181.84413	-914.58679	301.68021	67.487251	-977.54895	322.50653	55.104565	-1036.1837	161.76413	39.47229	-948.67926	306.68356	467.77826	-1437.8326	73.891701	320.08536	-1542.3843	113.43738	247.71751	-1533.2758	287.31363	70.189415	-1434.259	315.81598	55.186989	-1362.9326	161.46989	39.529575	-1463.2041
